<svg width="66" height="66" viewBox="0 0 66 66" fill="none" xmlns="http://www.w3.org/2000/svg">
<path d="M46.8877 55.77C44.1927 58.3825 41.2502 57.97 38.4177 56.7325C35.4202 55.4675 32.6702 55.4125 29.5077 56.7325C25.5477 58.4375 23.4577 57.9425 21.0927 55.77C7.67271 41.9375 9.65271 20.8725 24.8877 20.1025C28.6002 20.295 31.1852 22.1375 33.3577 22.3025C36.6027 21.6425 39.7102 19.745 43.1752 19.9925C47.3277 20.3225 50.4627 21.9725 52.5252 24.9425C43.9452 30.085 45.9802 41.3875 53.8452 44.55C52.2777 48.675 50.2427 52.7725 46.8602 55.7975L46.8877 55.77ZM33.0827 19.9375C32.6702 13.805 37.6477 8.745 43.3677 8.25C44.1652 15.345 36.9327 20.625 33.0827 19.9375Z" fill="black"/>
</svg>
