<svg width="47" height="47" viewBox="0 0 47 47" fill="none" xmlns="http://www.w3.org/2000/svg">
<g clip-path="url(#clip0_279_225)">
<path d="M45.6634 19.2641C45.9378 20.8413 46.0744 22.4395 46.0718 24.0404C46.0718 31.1903 43.5161 37.2357 39.0688 41.3276H39.0746C35.1854 44.9202 29.8391 46.9999 23.5 46.9999C17.2674 46.9999 11.2901 44.5241 6.88299 40.117C2.47589 35.7098 0 29.7325 0 23.4999C0 17.2674 2.47589 11.29 6.88299 6.88293C11.2901 2.47583 17.2674 -6.07112e-05 23.5 -6.07112e-05C29.3331 -0.0650204 34.9657 2.12615 39.2215 6.11581L32.5122 12.8251C30.0865 10.514 26.85 9.24811 23.5 9.30006C17.3694 9.30006 12.1613 13.4361 10.3047 19.0056C9.32214 21.9243 9.32214 25.0844 10.3047 28.0031H10.3136C12.1789 33.5638 17.3783 37.6998 23.5088 37.6998C26.6754 37.6998 29.3956 36.8891 31.5047 35.4556H31.4959C32.7208 34.6445 33.7685 33.5935 34.5758 32.3661C35.3832 31.1388 35.9333 29.7605 36.1929 28.3145H23.5V19.267L45.6634 19.2641Z" fill="black"/>
</g>
<defs>
<clipPath id="clip0_279_225">
<rect width="47" height="47" fill="white"/>
</clipPath>
</defs>
</svg>
